<svg xmlns="http://www.w3.org/2000/svg" viewBox="0 0 59.55 36.28"><title>beerx5</title><g id="Layer_2" data-name="Layer 2"><g id="Layer_1-2" data-name="Layer 1"><rect x="3.78" y="3.91" width="19.07" height="30.51" transform="translate(0.19 -0.13) rotate(0.56)" style="fill:#fbb03b"/><rect x="3.91" y="0.04" width="7.63" height="11.44" transform="translate(0.06 -0.07) rotate(0.56)" style="fill:#fcd375"/><rect x="19.14" y="4" width="7.63" height="7.63" transform="translate(0.08 -0.22) rotate(0.56)" style="fill:#fcd375"/><rect x="26.66" y="11.68" width="3.81" height="15.25" transform="translate(0.19 -0.28) rotate(0.56)" style="fill:#fbb03b"/><rect x="22.79" y="23.08" width="3.81" height="3.81" transform="translate(0.24 -0.24) rotate(0.56)" style="fill:#fbb03b"/><rect x="22.9" y="11.64" width="3.81" height="3.81" transform="translate(0.13 -0.24) rotate(0.56)" style="fill:#fbb03b"/><rect x="11.53" y="3.91" width="3.81" height="3.81" transform="translate(0.06 -0.13) rotate(0.56)" style="fill:#fcd375"/><rect x="0.06" y="3.79" width="3.81" height="11.44" transform="translate(0.09 -0.02) rotate(0.56)" style="fill:#fcd375"/><rect x="3.94" y="0.04" width="7.63" height="3.81" transform="translate(0.02 -0.08) rotate(0.56)" style="fill:#fff;opacity:0.4"/><rect x="22.97" y="4.02" width="3.81" height="3.81" transform="translate(0.06 -0.24) rotate(0.56)" style="fill:#fff;opacity:0.4"/><rect x="0.02" y="11.42" width="3.81" height="3.81" transform="translate(0.13 -0.02) rotate(0.56)" style="fill:#fff;opacity:0.4"/><rect x="7.72" y="3.87" width="3.81" height="3.81" transform="translate(0.06 -0.09) rotate(0.56)" style="opacity:0.04"/><rect x="7.55" y="15.31" width="3.81" height="15.25" transform="translate(0.22 -0.09) rotate(0.56)" style="opacity:0.04"/><rect x="15.18" y="15.38" width="3.81" height="15.25" transform="translate(0.22 -0.16) rotate(0.56)" style="opacity:0.04"/><rect x="15.29" y="3.94" width="3.81" height="15.25" transform="translate(0.11 -0.17) rotate(0.56)" style="fill:#fcd375"/><text transform="translate(44.14 29)" style="font-size:26.856557846069336px;font-family:Roboto-Bold, Roboto;font-weight:700">5</text><text transform="translate(34.89 24.7)" style="font-size:15.551159858703613px;font-family:Roboto-Bold, Roboto;font-weight:700">x</text></g></g></svg>