<svg xmlns="http://www.w3.org/2000/svg" viewBox="0 0 295.2 381"><title>face</title><g id="Layer_2" data-name="Layer 2"><g id="Layer_1-2" data-name="Layer 1"><rect x="29.4" y="28.2" width="235.2" height="264.6" transform="translate(294 321) rotate(-180)" style="fill:#f4c382"/><rect x="29.4" y="263.4" width="176.4" height="117.6" transform="translate(235.2 644.4) rotate(-180)" style="fill:#f4c382"/><rect y="145.8" width="29.4" height="58.8" transform="translate(29.4 350.4) rotate(-180)" style="fill:#f4c382"/><rect x="235.2" y="204.6" width="29.4" height="58.8" transform="translate(499.8 468) rotate(-180)" style="opacity:0.04"/><rect x="117.6" y="204.6" width="29.4" height="29.4" transform="translate(264.6 438.6) rotate(-180)" style="opacity:0.04"/><rect x="88.2" y="234" width="29.4" height="29.4" transform="translate(205.8 497.4) rotate(-180)" style="opacity:0.04"/><rect y="175.2" width="29.4" height="29.4" transform="translate(29.4 379.8) rotate(-180)" style="opacity:0.04"/><rect x="176.4" y="28.2" width="29.4" height="29.4" transform="translate(382.2 85.8) rotate(-180)" style="opacity:0.04"/><rect x="58.8" y="145.8" width="29.4" height="29.4" transform="translate(147 321) rotate(-180)" style="opacity:0.04"/><rect x="147" y="292.8" width="58.8" height="29.4" transform="translate(352.8 615) rotate(-180)" style="opacity:0.04"/><rect x="176.4" y="322.2" width="29.4" height="29.4" transform="translate(382.2 673.8) rotate(-180)" style="opacity:0.04"/><rect x="205.8" y="234" width="29.4" height="29.4" transform="translate(441 497.4) rotate(-180)" style="opacity:0.04"/><rect x="147" y="234" width="58.8" height="29.4" transform="translate(352.8 497.4) rotate(-180)" style="fill:#fff"/><rect x="118.8" y="145.4" width="29.4" height="29.4" transform="translate(267 320.2) rotate(-180)"/><rect x="265.8" y="145.4" width="29.4" height="29.4" transform="translate(561 320.2) rotate(-180)"/><rect x="28.4" width="176.4" height="29" transform="translate(233.2 29) rotate(-180)" style="fill:#f4c382"/></g></g></svg>