<svg xmlns="http://www.w3.org/2000/svg" viewBox="0 0 48.57 48.57"><title>hair</title><g id="Layer_2" data-name="Layer 2"><g id="Layer_1-2" data-name="Layer 1"><rect x="12.14" width="24.28" height="16.19" transform="translate(48.57 16.19) rotate(-180)" style="fill:#ffeb8a"/><rect x="8.09" y="36.43" width="4.05" height="12.14" transform="translate(20.24 85) rotate(-180)" style="fill:#ffeb8a"/><rect x="8.09" y="8.09" width="8.09" height="8.09" transform="translate(24.28 24.28) rotate(-180)" style="fill:#ffeb8a"/><rect x="4.05" y="16.19" width="12.14" height="12.14" transform="translate(20.24 44.52) rotate(-180)" style="fill:#ffeb8a"/><rect x="16.19" y="16.19" width="16.19" height="4.05" transform="translate(48.57 36.43) rotate(-180)" style="fill:#ffeb8a"/><rect x="36.43" y="4.05" width="8.09" height="8.09" transform="translate(80.95 16.19) rotate(-180)" style="fill:#ffeb8a"/><rect x="44.52" y="8.09" width="4.05" height="32.38" transform="translate(93.09 48.57) rotate(-180)" style="fill:#ffeb8a"/><rect x="40.47" y="12.14" width="4.05" height="4.05" transform="translate(85 28.33) rotate(-180)" style="fill:#ffeb8a"/><rect x="36.43" y="4.05" width="4.05" height="8.09" transform="translate(76.9 16.19) rotate(-180)" style="fill:#ffeb8a"/><rect x="4.05" y="28.33" width="4.05" height="16.19" transform="translate(12.14 72.85) rotate(-180)" style="fill:#ffeb8a"/><rect x="12.14" y="28.33" width="4.05" height="8.09" transform="translate(28.33 64.76) rotate(-180)" style="fill:#ffeb8a"/><rect x="32.38" y="12.14" width="4.05" height="4.05" transform="translate(68.81 28.33) rotate(-180)" style="opacity:0.04"/><rect x="8.09" y="16.19" width="24.28" height="4.05" transform="translate(40.47 36.43) rotate(-180)" style="opacity:0.04"/><rect x="36.43" y="8.09" width="4.05" height="4.05" transform="translate(76.9 20.24) rotate(-180)" style="opacity:0.04"/><rect x="8.09" y="36.43" width="4.05" height="12.14" transform="translate(20.24 85) rotate(-180)" style="opacity:0.04"/><rect x="16.19" y="8.09" width="8.09" height="4.05" transform="translate(40.47 20.24) rotate(-180)" style="fill:#fff;opacity:0.4"/><rect x="12.14" width="4.05" height="4.05" transform="translate(28.33 4.05) rotate(-180)" style="fill:#fff;opacity:0.4"/><rect x="8.09" y="8.09" width="4.05" height="4.05" transform="translate(20.24 20.24) rotate(-180)" style="fill:#fff;opacity:0.4"/><rect x="4.05" y="16.19" width="4.05" height="4.05" transform="translate(12.14 36.43) rotate(-180)" style="fill:#fff;opacity:0.4"/><rect x="44.52" y="8.09" width="4.05" height="4.05" transform="translate(93.09 20.24) rotate(-180)" style="fill:#fff;opacity:0.4"/><rect x="40.47" y="4.05" width="4.05" height="4.05" transform="translate(85 12.14) rotate(-180)" style="fill:#fff;opacity:0.4"/><rect x="32.38" width="4.05" height="4.05" transform="translate(68.81 4.05) rotate(-180)" style="fill:#fff;opacity:0.4"/><rect x="20.24" y="4.05" width="4.05" height="4.05" transform="translate(44.52 12.14) rotate(-180)" style="fill:#fff;opacity:0.4"/><rect y="28.33" width="4.05" height="8.09" transform="translate(4.05 64.76) rotate(-180)" style="fill:#ffeb8a"/><rect y="28.33" width="4.05" height="8.09" transform="translate(4.05 64.76) rotate(-180)" style="fill:#fff;opacity:0.4"/></g></g></svg>