<svg xmlns="http://www.w3.org/2000/svg" viewBox="0 0 48.55 48.55"><title>heart</title><g id="Layer_2" data-name="Layer 2"><g id="Layer_1-2" data-name="Layer 1"><rect x="19.26" y="38.52" width="10.02" height="10.02" style="fill:#b52631"/><rect x="19.26" y="28.89" width="10.02" height="10.02" style="fill:#c1272d"/><rect x="9.63" y="28.89" width="10.02" height="10.02" style="fill:#c1272d"/><rect x="28.89" y="28.89" width="10.02" height="10.02" style="fill:#b52631"/><rect x="19.26" y="19.26" width="10.02" height="10.02" style="fill:#c1272d"/><rect x="9.63" y="19.26" width="10.02" height="10.02" style="fill:#c1272d"/><rect x="28.89" y="19.26" width="10.02" height="10.02" style="fill:#c1272d"/><rect y="19.26" width="10.02" height="10.02" style="fill:#c1272d"/><rect x="38.52" y="19.26" width="10.02" height="10.02" style="fill:#b52631"/><rect x="9.63" y="9.63" width="10.02" height="10.02" style="fill:#c1272d"/><rect x="28.89" y="9.63" width="10.02" height="10.02" style="fill:#c1272d"/><rect x="19.26" y="9.63" width="10.02" height="10.02" style="fill:#c1272d"/><rect y="9.63" width="10.02" height="10.02" style="fill:#c1272d"/><rect x="38.52" y="9.63" width="10.02" height="10.02" style="fill:#c1272d"/><rect x="9.63" width="10.02" height="10.02" style="fill:#c93a49"/><rect x="28.89" width="10.02" height="10.02" style="fill:#c93a49"/><rect y="9.06" width="10.02" height="10.02" style="fill:#c93a49"/></g></g></svg>