<svg xmlns="http://www.w3.org/2000/svg" viewBox="0 0 382.2 529.2"><title>heino</title><g id="Layer_2" data-name="Layer 2"><g id="Layer_1-2" data-name="Layer 1"><rect x="58.8" y="88.2" width="235.2" height="264.6" style="fill:#f4c382"/><rect x="117.6" y="323.4" width="176.4" height="117.6" style="fill:#f4c382"/><rect x="117.6" width="176.4" height="117.6" style="fill:#ffeb8a"/><rect x="294" y="264.6" width="29.4" height="88.2" style="fill:#ffeb8a"/><rect x="264.6" y="58.8" width="58.8" height="58.8" style="fill:#ffeb8a"/><rect x="264.6" y="117.6" width="88.2" height="88.2" style="fill:#ffeb8a"/><rect x="147" y="176.4" width="88.2" height="88.2"/><rect x="88.2" y="176.4" width="58.8" height="29.4"/><rect x="235.2" y="176.4" width="29.4" height="29.4"/><rect x="147" y="117.6" width="117.6" height="29.4" style="fill:#ffeb8a"/><rect x="58.8" y="29.4" width="58.8" height="58.8" style="fill:#ffeb8a"/><rect x="29.4" y="58.8" width="29.4" height="235.2" style="fill:#ffeb8a"/><rect y="176.4" width="88.2" height="88.2"/><rect x="58.8" y="88.2" width="29.4" height="29.4" style="fill:#ffeb8a"/><rect x="88.2" y="29.4" width="29.4" height="58.8" style="fill:#ffeb8a"/><rect x="323.4" y="205.8" width="29.4" height="117.6" style="fill:#ffeb8a"/><rect x="294" y="205.8" width="29.4" height="58.8" style="fill:#f4c382"/><rect x="264.6" y="205.8" width="29.4" height="58.8" style="fill:#ffeb8a"/><rect x="58.8" y="264.6" width="29.4" height="58.8" style="opacity:0.04"/><rect x="176.4" y="264.6" width="29.4" height="29.4" style="opacity:0.04"/><rect x="205.8" y="294" width="29.4" height="29.4" style="opacity:0.04"/><rect x="294" y="235.2" width="29.4" height="29.4" style="opacity:0.04"/><rect x="117.6" y="88.2" width="29.4" height="29.4" style="opacity:0.04"/><rect x="147" y="117.6" width="176.4" height="29.4" style="opacity:0.04"/><rect x="88.2" y="58.8" width="29.4" height="29.4" style="opacity:0.04"/><rect x="294" y="264.6" width="29.4" height="88.2" style="opacity:0.04"/><rect x="235.2" y="205.8" width="29.4" height="29.4" style="opacity:0.04"/><rect x="117.6" y="352.8" width="58.8" height="29.4" style="opacity:0.04"/><rect x="117.6" y="382.2" width="29.4" height="29.4" style="opacity:0.04"/><rect x="88.2" y="294" width="29.4" height="29.4" style="opacity:0.04"/><rect x="205.8" y="58.8" width="58.8" height="29.4" style="fill:#fff;opacity:0.4"/><rect x="205.8" y="205.8" width="29.4" height="29.4" style="fill:#fff;opacity:0.4"/><rect x="264.6" width="29.4" height="29.4" style="fill:#fff;opacity:0.4"/><rect x="294" y="58.8" width="29.4" height="29.4" style="fill:#fff;opacity:0.4"/><rect x="323.4" y="117.6" width="29.4" height="29.4" style="fill:#fff;opacity:0.4"/><rect x="29.4" y="58.8" width="29.4" height="29.4" style="fill:#fff;opacity:0.4"/><rect x="58.8" y="29.4" width="29.4" height="29.4" style="fill:#fff;opacity:0.4"/><rect x="117.6" width="29.4" height="29.4" style="fill:#fff;opacity:0.4"/><rect x="205.8" y="29.4" width="29.4" height="29.4" style="fill:#fff;opacity:0.4"/><rect x="117.6" y="411.6" width="176.4" height="117.6"/><rect x="58.8" y="440" width="58.8" height="89" style="fill:#c1272d"/><rect x="294" y="440" width="58.8" height="89" style="fill:#c1272d"/><rect x="352.8" y="205.8" width="29.4" height="58.8" style="fill:#ffeb8a"/><rect x="352.8" y="205.8" width="29.4" height="58.8" style="fill:#fff;opacity:0.4"/><rect x="30.4" y="457.8" width="29.4" height="71.2" style="fill:#c1272d"/><rect x="351.8" y="457.8" width="29.4" height="71.2" style="fill:#c1272d"/><rect x="117.6" y="294" width="58.8" height="29.4" style="fill:#fff"/></g></g></svg>