<svg xmlns="http://www.w3.org/2000/svg" viewBox="0 0 216 459"><title>winner</title><g id="Layer_2" data-name="Layer 2"><g id="Layer_1-2" data-name="Layer 1"><rect x="36" y="27" width="72" height="81" transform="translate(144 135) rotate(-180)" style="fill:#f4c382"/><rect x="36" y="99" width="54" height="36" transform="translate(126 234) rotate(-180)" style="fill:#f4c382"/><rect x="36" width="54" height="36" transform="translate(126 36) rotate(-180)" style="fill:#ffeb8a"/><rect x="27" y="81" width="9" height="27" transform="translate(63 189) rotate(-180)" style="fill:#ffeb8a"/><rect x="27" y="18" width="18" height="18" transform="translate(72 54) rotate(-180)" style="fill:#ffeb8a"/><rect x="18" y="36" width="27" height="27" transform="translate(63 99) rotate(-180)" style="fill:#ffeb8a"/><rect x="54" y="54" width="27" height="27" transform="translate(135 135) rotate(-180)"/><rect x="81" y="54" width="18" height="9" transform="translate(180 117) rotate(-180)"/><rect x="45" y="54" width="9" height="9" transform="translate(99 117) rotate(-180)"/><rect x="45" y="36" width="36" height="9" transform="translate(126 81) rotate(-180)" style="fill:#ffeb8a"/><rect x="90" y="9" width="18" height="18" transform="translate(198 36) rotate(-180)" style="fill:#ffeb8a"/><rect x="108" y="18" width="9" height="72" transform="translate(225 108) rotate(-180)" style="fill:#ffeb8a"/><rect x="99" y="54" width="27" height="27" transform="translate(225 135) rotate(-180)"/><rect x="99" y="27" width="9" height="9" transform="translate(207 63) rotate(-180)" style="fill:#ffeb8a"/><rect x="90" y="9" width="9" height="18" transform="translate(189 36) rotate(-180)" style="fill:#ffeb8a"/><rect x="18" y="63" width="9" height="36" transform="translate(45 162) rotate(-180)" style="fill:#ffeb8a"/><rect x="27" y="63" width="9" height="18" transform="translate(63 144) rotate(-180)" style="fill:#f4c382"/><rect x="36" y="63" width="9" height="18" transform="translate(81 144) rotate(-180)" style="fill:#ffeb8a"/><rect x="99" y="81" width="9" height="18" transform="translate(207 180) rotate(-180)" style="opacity:0.04"/><rect x="63" y="81" width="9" height="9" transform="translate(135 171) rotate(-180)" style="opacity:0.04"/><rect x="54" y="90" width="9" height="9" transform="translate(117 189) rotate(-180)" style="opacity:0.04"/><rect x="27" y="72" width="9" height="9" transform="translate(63 153) rotate(-180)" style="opacity:0.04"/><rect x="81" y="27" width="9" height="9" transform="translate(171 63) rotate(-180)" style="opacity:0.04"/><rect x="27" y="36" width="54" height="9" transform="translate(108 81) rotate(-180)" style="opacity:0.04"/><rect x="90" y="18" width="9" height="9" transform="translate(189 45) rotate(-180)" style="opacity:0.04"/><rect x="27" y="81" width="9" height="27" transform="translate(63 189) rotate(-180)" style="opacity:0.04"/><rect x="45" y="63" width="9" height="9" transform="translate(99 135) rotate(-180)" style="opacity:0.04"/><rect x="72" y="108" width="18" height="9" transform="translate(162 225) rotate(-180)" style="opacity:0.04"/><rect x="81" y="117" width="9" height="9" transform="translate(171 243) rotate(-180)" style="opacity:0.04"/><rect x="90" y="90" width="9" height="9" transform="translate(189 189) rotate(-180)" style="opacity:0.04"/><rect x="45" y="18" width="18" height="9" transform="translate(108 45) rotate(-180)" style="fill:#fff;opacity:0.4"/><rect x="54" y="63" width="9" height="9" transform="translate(117 135) rotate(-180)" style="fill:#fff;opacity:0.4"/><rect x="36" width="9" height="9" transform="translate(81 9) rotate(-180)" style="fill:#fff;opacity:0.4"/><rect x="27" y="18" width="9" height="9" transform="translate(63 45) rotate(-180)" style="fill:#fff;opacity:0.4"/><rect x="18" y="36" width="9" height="9" transform="translate(45 81) rotate(-180)" style="fill:#fff;opacity:0.4"/><rect x="108" y="18" width="9" height="9" transform="translate(225 45) rotate(-180)" style="fill:#fff;opacity:0.4"/><rect x="99" y="9" width="9" height="9" transform="translate(207 27) rotate(-180)" style="fill:#fff;opacity:0.4"/><rect x="81" width="9" height="9" transform="translate(171 9) rotate(-180)" style="fill:#fff;opacity:0.4"/><rect x="54" y="9" width="9" height="9" transform="translate(117 27) rotate(-180)" style="fill:#fff;opacity:0.4"/><rect x="36" y="126" width="54" height="36" transform="translate(126 288) rotate(-180)"/><rect x="90" y="135" width="18" height="45" transform="translate(198 315) rotate(-180)" style="fill:#c1272d"/><rect x="18" y="135" width="18" height="45" transform="translate(54 315) rotate(-180)" style="fill:#c1272d"/><rect x="45" y="162" width="36" height="18" transform="translate(126 342) rotate(-180)"/><rect x="81" y="162" width="9" height="18" transform="translate(171 342) rotate(-180)" style="fill:#c1272d"/><rect x="36" y="162" width="9" height="18" transform="translate(81 342) rotate(-180)" style="fill:#c1272d"/><rect x="9" y="63" width="9" height="18" transform="translate(27 144) rotate(-180)" style="fill:#ffeb8a"/><rect x="9" y="63" width="9" height="18" transform="translate(27 144) rotate(-180)" style="fill:#fff;opacity:0.4"/><rect x="108" y="144" width="9" height="36" transform="translate(225 324) rotate(-180)" style="fill:#c1272d"/><rect x="9" y="144" width="9" height="36" transform="translate(27 324) rotate(-180)" style="fill:#c1272d"/><rect x="108" y="153" width="18" height="81" transform="translate(234 387) rotate(-180)" style="fill:#c1272d"/><rect y="153" width="18" height="126" transform="translate(18 432) rotate(-180)" style="fill:#c1272d"/><rect x="27" y="180" width="72" height="90" transform="translate(126 450) rotate(-180)" style="fill:#c1272d"/><rect x="81" y="270" width="18" height="189" transform="translate(180 729) rotate(-180)"/><rect x="27" y="270" width="18" height="189" transform="translate(72 729) rotate(-180)"/><rect x="45" y="270" width="36" height="9" transform="translate(126 549) rotate(-180)"/><rect x="54" y="180" width="18" height="90" transform="translate(126 450) rotate(-180)"/><rect x="99" y="450" width="9" height="9" transform="translate(207 909) rotate(-180)"/><rect x="45" y="450" width="9" height="9" transform="translate(99 909) rotate(-180)"/><rect y="279" width="18" height="23" transform="translate(18 581) rotate(-180)" style="fill:#f4c382"/><rect x="135" y="215" width="27" height="18" transform="translate(297 448) rotate(-180)" style="fill:#f4c382"/><rect x="162" y="188" width="45" height="72" transform="translate(369 448) rotate(-180)" style="fill:#fbb03b"/><rect x="189" y="179" width="18" height="27" transform="translate(396 385) rotate(-180)" style="fill:#fcd375"/><rect x="153" y="188" width="18" height="18" transform="translate(324 394) rotate(-180)" style="fill:#fcd375"/><rect x="144" y="206" width="9" height="36" transform="translate(297 448) rotate(-180)" style="fill:#fbb03b"/><rect x="153" y="233" width="9" height="9" transform="translate(315 475) rotate(-180)" style="fill:#fbb03b"/><rect x="153" y="206" width="9" height="9" transform="translate(315 421) rotate(-180)" style="fill:#fbb03b"/><rect x="180" y="188" width="9" height="9" transform="translate(369 385) rotate(-180)" style="fill:#fcd375"/><rect x="207" y="188" width="9" height="27" transform="translate(423 403) rotate(-180)" style="fill:#fcd375"/><rect x="189" y="179" width="18" height="9" transform="translate(396 367) rotate(-180)" style="fill:#fff;opacity:0.4"/><rect x="153" y="188" width="9" height="9" transform="translate(315 385) rotate(-180)" style="fill:#fff;opacity:0.4"/><rect x="207" y="206" width="9" height="9" transform="translate(423 421) rotate(-180)" style="fill:#fff;opacity:0.4"/><rect x="189" y="188" width="9" height="9" transform="translate(387 385) rotate(-180)" style="opacity:0.04"/><rect x="189" y="215" width="9" height="36" transform="translate(387 466) rotate(-180)" style="opacity:0.04"/><rect x="171" y="215" width="9" height="36" transform="translate(351 466) rotate(-180)" style="opacity:0.04"/><rect x="171" y="188" width="9" height="36" transform="translate(351 412) rotate(-180)" style="fill:#fcd375"/><rect x="113" y="213" width="18" height="26" transform="translate(348 104) rotate(90)" style="fill:#c1272d"/></g></g></svg>