<?xml version="1.0" encoding="utf-8"?>
<!-- Generator: Adobe Illustrator 21.1.0, SVG Export Plug-In . SVG Version: 6.00 Build 0)  -->
<svg version="1.1" id="Layer_1" xmlns="http://www.w3.org/2000/svg" xmlns:xlink="http://www.w3.org/1999/xlink" x="0px" y="0px"
	 viewBox="0 0 800 800" style="enable-background:new 0 0 800 800;" xml:space="preserve">
<style type="text/css">
	.st0{fill:#FFF7CC;}
	.st1{fill:#FBB03B;}
	.st2{fill:#FCD375;}
	.st3{opacity:0.4;fill:#FFFFFF;}
	.st4{opacity:4.000000e-02;}
</style>
<title>logo</title>
<rect x="-0.2" y="0.2" class="st0" width="800" height="800"/>
<g>
	<rect x="265.9" y="244.1" class="st1" width="223.1" height="357"/>
	<rect x="265.9" y="199.4" class="st2" width="89.2" height="133.9"/>
	<rect x="444.4" y="244.1" class="st2" width="89.2" height="89.2"/>
	<rect x="533.6" y="333.3" class="st1" width="44.6" height="178.5"/>
	<rect x="489" y="467.2" class="st1" width="44.6" height="44.6"/>
	<rect x="489" y="333.3" class="st1" width="44.6" height="44.6"/>
	<rect x="355.1" y="244.1" class="st2" width="44.6" height="44.6"/>
	<rect x="221.2" y="244.1" class="st2" width="44.6" height="133.9"/>
	<rect x="265.9" y="199.4" class="st3" width="89.2" height="44.6"/>
	<rect x="489" y="244.1" class="st3" width="44.6" height="44.6"/>
	<rect x="221.2" y="333.3" class="st3" width="44.6" height="44.6"/>
	<rect x="310.5" y="244.1" class="st4" width="44.6" height="44.6"/>
	<rect x="310.5" y="377.9" class="st4" width="44.6" height="178.5"/>
	<rect x="399.8" y="377.9" class="st4" width="44.6" height="178.5"/>
	<rect x="399.8" y="244.1" class="st2" width="44.6" height="178.5"/>
</g>
</svg>
