<svg xmlns="http://www.w3.org/2000/svg" viewBox="0 0 4427.78 4432.1"><title>sunburst</title><g id="Layer_2" data-name="Layer 2"><g id="Layer_1-2" data-name="Layer 1"><path id="p1" d="M2213.89,2216l2199.89,115.29-14,267.12Z"/><path id="p1-2" data-name="p1" d="M2213.89,2216l2108.38,638.41-77.52,256Z"/><path id="p1-3" data-name="p1" d="M2213.89,2216,4108.22,3340.48l-136.53,230Z"/><path id="p1-4" data-name="p1" d="M2213.89,2216l1570.19,1545.1L3596.47,3951.8Z"/><path id="p1-5" data-name="p1" d="M2213.89,2216l1154.8,1876-227.78,140.22Z"/><path id="p1-6" data-name="p1" d="M2213.89,2216l672.29,2097.82-254.72,81.63Z"/><path id="p1-7" data-name="p1" d="M2213.89,2216,2364.61,4413.8l-266.86,18.3Z"/><path id="p1-8" data-name="p1" d="M2213.89,2216,1834.27,4386l-263.48-46.09Z"/><path id="p1-9" data-name="p1" d="M2213.89,2216,1326,4232.1l-244.79-107.81Z"/><path id="p1-10" data-name="p1" d="M2213.89,2216,869.33,3961,657.45,3797.77Z"/><path id="p1-11" data-name="p1" d="M2213.89,2216,490.8,3588.55,324.14,3379.33Z"/><path id="p1-12" data-name="p1" d="M2213.89,2216,212.4,3136.3l-111.74-243Z"/><path id="p1-13" data-name="p1" d="M2213.89,2216,50.33,2630.58,0,2367.88Z"/><path id="p1-14" data-name="p1" d="M2213.89,2216,14,2100.76l14-267.12Z"/><path id="p1-15" data-name="p1" d="M2213.89,2216,105.52,1577.64l77.52-256Z"/><path id="p1-16" data-name="p1" d="M2213.89,2216,319.56,1091.62l136.53-230Z"/><path id="p1-17" data-name="p1" d="M2213.89,2216,643.7,671,831.31,480.3Z"/><path id="p1-18" data-name="p1" d="M2213.89,2216l-1154.8-1876,227.78-140.22Z"/><path id="p1-19" data-name="p1" d="M2213.89,2216,1541.6,118.23,1796.32,36.6Z"/><path id="p1-20" data-name="p1" d="M2213.89,2216,2063.17,18.3,2330,0Z"/><path id="p1-21" data-name="p1" d="M2213.89,2216l379.62-2170L2857,92.19Z"/><path id="p1-22" data-name="p1" d="M2213.89,2216,3101.78,200l244.79,107.81Z"/><path id="p1-23" data-name="p1" d="M2213.89,2216l1344.56-1745,211.88,163.26Z"/><path id="p1-24" data-name="p1" d="M2213.89,2216,3937,843.55l166.65,209.22Z"/><path id="p1-25" data-name="p1" d="M2213.89,2216l2001.49-920.25,111.74,243Z"/><path id="p1-26" data-name="p1" d="M2213.89,2216l2163.56-414.53,50.33,262.7Z"/><circle cx="2213.89" cy="2216.05"/><path d="M1258.89,1681h2v1h-1v1h1v1h-2Zm-1-2h4v1h1v5h-1v1h-4v-1h-1v-5h1v5h4v-5h-4Zm7,1h1v2h1v-2h1v2h-1v1h1v2h-1v-2h-1v2h-1v-2h1v-1h-1Zm4,0h5v5h-1v-4h-1v4h-1v-4h-1v4h-1Zm6,0h3l-1,1h-1v3h1v-3l1-1v5h-2v2h-1Zm4-2h1v6h1v1h-2Zm3,2h3l-1,1h-1v1h1v-1l1-1v3h-2v1h2v1h-3Zm4,4h1v1h-1Zm2-4h3v1h-2v3h2v1h-3Zm4,0h3v5h-3l1-1h1v-3h-1v3l-1,1Zm4,0h5v5h-1v-4h-1v4h-1v-4h-1v4h-1Z" style="opacity:0.009999999776482582;isolation:isolate"/><text transform="translate(1257.89 2750.05)" style="opacity:0.009999999776482582;isolation:isolate;font-size:20px;font-family:Verdana, Verdana">© xmple.com</text><text transform="translate(3053.45 1698.05)" style="opacity:0.009999999776482582;isolation:isolate;font-size:20px;font-family:Verdana, Verdana">xmple.com</text><g id="a" style="opacity:0.3499999940395355"><path d="M2990.07,2738.65a.79.79,0,0,1,.64.27.9.9,0,0,1,.27.67,1,1,0,0,1-.27.67,9.07,9.07,0,0,1-2.5,1.49,8.4,8.4,0,0,1-2.9.52,7.87,7.87,0,0,1-5.85-2.44,8.29,8.29,0,0,1,5.85-14.14,8.4,8.4,0,0,1,2.9.52,8,8,0,0,1,2.5,1.49.91.91,0,0,1,.34.7.9.9,0,0,1-.27.67.88.88,0,0,1-.64.27.8.8,0,0,1-.58-.21,6.3,6.3,0,0,0-4.24-1.58,6.43,6.43,0,0,0,0,12.86,6.43,6.43,0,0,0,2.26-.43,6.62,6.62,0,0,0,2-1.16.88.88,0,0,1,.58-.18Zm7.13-4.66a11.92,11.92,0,0,1-11.92,11.92,11.92,11.92,0,0,1-11.95-11.92,11.93,11.93,0,0,1,23.87,0Zm-11.92-10.67a10.69,10.69,0,0,0-7.56,18.23,10.43,10.43,0,0,0,7.56,3.14,10.67,10.67,0,0,0,0-21.34Zm28.56,11.19-5.67-6.8a.93.93,0,0,1,.06-1.25.9.9,0,0,1,.67-.27.88.88,0,0,1,.64.27l5.52,6.58,5.49-6.58a1,1,0,0,1,.67-.27.94.94,0,0,1,.94.94,1,1,0,0,1-.21.61l-5.7,6.8,5.73,6.86a1,1,0,0,1,.18.58.94.94,0,0,1-.94.94.77.77,0,0,1-.61-.27l-5.55-6.61-5.55,6.61a.77.77,0,0,1-.61.27.9.9,0,0,1-.67-.27.88.88,0,0,1-.27-.64.85.85,0,0,1,.18-.55Zm12.56,7.44a.94.94,0,0,1-.94.94.94.94,0,0,1-.91-.91v-14.81a.83.83,0,0,1,.27-.64.88.88,0,0,1,.64-.27.94.94,0,0,1,.94.94v1a7.09,7.09,0,0,1,4.63-1.92,6.24,6.24,0,0,1,4.57,1.92,1,1,0,1,0,2,0,6.48,6.48,0,0,1,9.17,0,6.28,6.28,0,0,1,1.89,4.57v9.27a.94.94,0,0,1-.94.94.94.94,0,0,1-.91-.91v-9.27a4.37,4.37,0,0,0-1.37-3.26,4.42,4.42,0,0,0-3.26-1.37,4.47,4.47,0,0,0-3.26,1.37,4.42,4.42,0,0,0-1.37,3.26v9.27a.9.9,0,0,1-.27.67.88.88,0,0,1-.64.27.9.9,0,0,1-.67-.27.88.88,0,0,1-.27-.64v-9.27a4.35,4.35,0,0,0-1.34-3.26,4.62,4.62,0,0,0-7.89,3.26Zm26.24-7.41a6.56,6.56,0,0,0,6.49,6.49,6.23,6.23,0,0,0,4.57-1.89,6.46,6.46,0,1,0-9.14-9.11,6.24,6.24,0,0,0-1.92,4.57Zm0,14.57a.9.9,0,0,1-.27.67,1,1,0,0,1-.64.24,1,1,0,0,1-.67-.24.87.87,0,0,1-.24-.67v-14.54a8.33,8.33,0,0,1,8.32-8.32,8.06,8.06,0,0,1,5.88,2.44,8.32,8.32,0,0,1,0,11.77,8.32,8.32,0,0,1-11.77,0l-.61-.58ZM3070,2720a.83.83,0,0,1,.27-.64.88.88,0,0,1,.64-.27.9.9,0,0,1,.67.27.88.88,0,0,1,.27.64V2741h1.52a.94.94,0,1,1,0,1.89h-2.47a.94.94,0,0,1-.91-.91Zm21.82,13.66a6.89,6.89,0,0,0-1.86-3.66,6.48,6.48,0,0,0-9.17,0,7,7,0,0,0-1.89,3.66Zm-1.71,5.67a.9.9,0,0,1,.67.27,1,1,0,0,1,.24.67,1,1,0,0,1-.21.64,8.32,8.32,0,1,1,2.9-6.31.94.94,0,0,1-.94.94h-13.87a7,7,0,0,0,1.89,3.66,6.52,6.52,0,0,0,6.86,1.52,7.06,7.06,0,0,0,1.89-1.13,1,1,0,0,1,.58-.21Zm9.36,2a1.5,1.5,0,0,1-.46,1.1,1.4,1.4,0,0,1-1.1.46,1.5,1.5,0,0,1-1.1-.46,1.62,1.62,0,0,1,0-2.19,1.5,1.5,0,0,1,1.1-.46,1.56,1.56,0,0,1,1.55,1.55Zm15.7-2.07a.88.88,0,0,1,.64.27,1,1,0,0,1,0,1.34,8.8,8.8,0,0,1-2.53,1.49,8.4,8.4,0,0,1-2.9.52,8.32,8.32,0,1,1,0-16.64,8.7,8.7,0,0,1,2.93.52,8.38,8.38,0,0,1,2.5,1.49,1.26,1.26,0,0,1,.21.34.67.67,0,0,1,.12.4.83.83,0,0,1-.27.64.9.9,0,0,1-.67.27.8.8,0,0,1-.58-.21,6.49,6.49,0,1,0-4.24,11.4,6.43,6.43,0,0,0,2.26-.43,6.77,6.77,0,0,0,2-1.16.85.85,0,0,1,.55-.18Zm20.21-4.72a8,8,0,0,1-2.44,5.88,8.32,8.32,0,1,1,2.44-5.88ZM3127,2728a6.5,6.5,0,0,0-6.49,6.49,6.12,6.12,0,0,0,1.89,4.57,6.26,6.26,0,0,0,4.6,1.92,6.33,6.33,0,0,0,4.57-1.89,6.46,6.46,0,0,0-4.57-11Zm12.5,13.9a.94.94,0,0,1-.94.94.94.94,0,0,1-.91-.91v-14.81a.83.83,0,0,1,.27-.64.88.88,0,0,1,.64-.27.94.94,0,0,1,.94.94v1a7.09,7.09,0,0,1,4.63-1.92,6.24,6.24,0,0,1,4.57,1.92,10.18,10.18,0,0,1,1,1.16,7.78,7.78,0,0,1,1-1.16,6.48,6.48,0,0,1,9.17,0,6.28,6.28,0,0,1,1.89,4.57v9.27a.94.94,0,0,1-.94.94.94.94,0,0,1-.91-.91v-9.27a4.37,4.37,0,0,0-1.37-3.26,4.42,4.42,0,0,0-3.26-1.37,4.47,4.47,0,0,0-3.26,1.37,4.42,4.42,0,0,0-1.37,3.26v9.27a.9.9,0,0,1-.27.67.88.88,0,0,1-.64.27.9.9,0,0,1-.67-.27.88.88,0,0,1-.27-.64v-9.27a4.35,4.35,0,0,0-1.34-3.26,4.6,4.6,0,0,0-6.55,0,4.39,4.39,0,0,0-1.34,3.26Z" style="stroke:#555;stroke-width:20px"/></g></g></g></svg>