<svg xmlns="http://www.w3.org/2000/svg" viewBox="0 0 588.35 588.35"><title>wheel</title><g id="Layer_2" data-name="Layer 2"><g id="Layer_1-2" data-name="Layer 1"><path d="M131.58,49.07a294.55,294.55,0,0,0-81.47,80.85L294.17,294.17Z" style="fill:#fafffd"/><path d="M458.43,50.11A293.21,293.21,0,0,0,352.51,5.89L294.17,294.17Z" style="fill:#a2d729"/><path d="M352.51,5.89a293.21,293.21,0,0,0-114.77-.44l56.43,288.72Z" style="fill:#fafffd"/><path d="M539.27,131.58a294.55,294.55,0,0,0-80.85-81.47L294.17,294.17Z" style="fill:#fafffd"/><path d="M582.89,237.74a294.55,294.55,0,0,0-43.62-106.16L294.17,294.17Z" style="fill:#a2d729"/><path d="M538.23,458.43a293.21,293.21,0,0,0,44.22-105.91L294.17,294.17Z" style="fill:#a2d729"/><path d="M582.45,352.51a293.21,293.21,0,0,0,.44-114.77L294.17,294.17Z" style="fill:#fafffd"/><path d="M237.74,5.45A294.55,294.55,0,0,0,131.58,49.07l162.59,245.1Z" style="fill:#a2d729"/><path d="M129.92,538.23a293.21,293.21,0,0,0,105.91,44.22l58.34-288.28Z" style="fill:#a2d729"/><path d="M235.83,582.45a293.21,293.21,0,0,0,114.77.44L294.17,294.17Z" style="fill:#fafffd"/><path d="M350.61,582.89a294.55,294.55,0,0,0,106.16-43.62L294.17,294.17Z" style="fill:#a2d729"/><path d="M50.11,129.92A293.21,293.21,0,0,0,5.89,235.83l288.28,58.34Z" style="fill:#a2d729"/><path d="M294.17,294.17l162.59,245.1a294.55,294.55,0,0,0,81.47-80.85Z" style="fill:#fafffd"/><path d="M5.89,235.83a293.21,293.21,0,0,0-.44,114.77l288.72-56.43Z" style="fill:#fafffd"/><path d="M49.07,456.77a294.55,294.55,0,0,0,80.85,81.47L294.17,294.17Z" style="fill:#fafffd"/><path d="M5.45,350.61A294.55,294.55,0,0,0,49.07,456.77l245.1-162.59Z" style="fill:#a2d729"/><circle cx="297.64" cy="294.17" r="89.25" style="fill:#fff"/><rect x="267.33" y="252.24" width="55.63" height="89" style="fill:#fbb03b"/><rect x="267.33" y="241.11" width="22.25" height="33.38" style="fill:#fcd375"/><rect x="311.83" y="252.24" width="22.25" height="22.25" style="fill:#fcd375"/><rect x="334.08" y="274.49" width="11.13" height="44.5" style="fill:#fbb03b"/><rect x="322.95" y="307.86" width="11.13" height="11.13" style="fill:#fbb03b"/><rect x="322.95" y="274.49" width="11.13" height="11.13" style="fill:#fbb03b"/><rect x="289.58" y="252.24" width="11.13" height="11.13" style="fill:#fcd375"/><rect x="256.2" y="252.24" width="11.13" height="33.38" style="fill:#fcd375"/><rect x="267.33" y="241.11" width="22.25" height="11.13" style="fill:#fff;opacity:0.4"/><rect x="322.95" y="252.24" width="11.13" height="11.13" style="fill:#fff;opacity:0.4"/><rect x="256.2" y="274.49" width="11.13" height="11.13" style="fill:#fff;opacity:0.4"/><rect x="278.45" y="252.24" width="11.13" height="11.13" style="opacity:0.04"/><rect x="278.45" y="285.61" width="11.13" height="44.5" style="opacity:0.04"/><rect x="300.7" y="285.61" width="11.13" height="44.5" style="opacity:0.04"/><rect x="300.7" y="252.24" width="11.13" height="44.5" style="fill:#fcd375"/></g></g></svg>