<svg xmlns="http://www.w3.org/2000/svg" viewBox="0 0 588.25 588.25"><title>wheel</title><g id="Layer_2" data-name="Layer 2"><g id="Layer_1-2" data-name="Layer 1"><path d="M86.15,86.15a294.55,294.55,0,0,0-63.81,95.4L294.13,294.13Z" style="fill:#fafffd"/><path d="M406.7,22.33A293.21,293.21,0,0,0,294.13,0V294.13Z" style="fill:#a2d729"/><path d="M294.13,0A293.21,293.21,0,0,0,181.55,22.33L294.13,294.13Z" style="fill:#fafffd"/><path d="M502.1,86.15a294.55,294.55,0,0,0-95.4-63.81L294.13,294.13Z" style="fill:#fafffd"/><path d="M565.92,181.55a294.55,294.55,0,0,0-63.81-95.4l-208,208Z" style="fill:#a2d729"/><path d="M565.92,406.7a293.21,293.21,0,0,0,22.33-112.58H294.13Z" style="fill:#a2d729"/><path d="M588.25,294.13a293.21,293.21,0,0,0-22.33-112.58L294.13,294.13Z" style="fill:#fafffd"/><path d="M181.55,22.33a294.55,294.55,0,0,0-95.4,63.81l208,208Z" style="fill:#a2d729"/><path d="M181.55,565.92a293.21,293.21,0,0,0,112.58,22.33V294.13Z" style="fill:#a2d729"/><path d="M294.13,588.25A293.21,293.21,0,0,0,406.7,565.92L294.13,294.13Z" style="fill:#fafffd"/><path d="M406.7,565.92a294.55,294.55,0,0,0,95.4-63.81l-208-208Z" style="fill:#a2d729"/><path d="M22.33,181.55A293.21,293.21,0,0,0,0,294.13H294.13Z" style="fill:#a2d729"/><path d="M294.13,294.13l208,208a294.55,294.55,0,0,0,63.81-95.4Z" style="fill:#fafffd"/><path d="M0,294.13A293.21,293.21,0,0,0,22.33,406.7L294.13,294.13Z" style="fill:#fafffd"/><path d="M86.15,502.1a294.55,294.55,0,0,0,95.4,63.81L294.13,294.13Z" style="fill:#fafffd"/><path d="M22.33,406.7a294.55,294.55,0,0,0,63.81,95.4l208-208Z" style="fill:#a2d729"/><circle cx="294.13" cy="294.13" r="89.25" style="fill:#fff"/><rect x="263.81" y="252.19" width="55.63" height="89" style="fill:#fbb03b"/><rect x="263.81" y="241.06" width="22.25" height="33.38" style="fill:#fcd375"/><rect x="308.31" y="252.19" width="22.25" height="22.25" style="fill:#fcd375"/><rect x="330.56" y="274.44" width="11.13" height="44.5" style="fill:#fbb03b"/><rect x="319.44" y="307.81" width="11.13" height="11.13" style="fill:#fbb03b"/><rect x="319.44" y="274.44" width="11.13" height="11.13" style="fill:#fbb03b"/><rect x="286.06" y="252.19" width="11.13" height="11.13" style="fill:#fcd375"/><rect x="252.69" y="252.19" width="11.13" height="33.38" style="fill:#fcd375"/><rect x="263.81" y="241.06" width="22.25" height="11.13" style="fill:#fff;opacity:0.4"/><rect x="319.44" y="252.19" width="11.13" height="11.13" style="fill:#fff;opacity:0.4"/><rect x="252.69" y="274.44" width="11.13" height="11.13" style="fill:#fff;opacity:0.4"/><rect x="274.94" y="252.19" width="11.13" height="11.13" style="opacity:0.04"/><rect x="274.94" y="285.56" width="11.13" height="44.5" style="opacity:0.04"/><rect x="297.19" y="285.56" width="11.13" height="44.5" style="opacity:0.04"/><rect x="297.19" y="252.19" width="11.13" height="44.5" style="fill:#fcd375"/></g></g></svg>