<svg xmlns="http://www.w3.org/2000/svg" viewBox="0 0 295.2 380"><title>face</title><g id="Layer_2" data-name="Layer 2"><g id="Layer_1-2" data-name="Layer 1"><rect x="29.4" y="27.2" width="235.2" height="264.6" transform="translate(294 319) rotate(-180)" style="fill:#f4c382"/><rect x="29.4" y="262.4" width="176.4" height="117.6" transform="translate(235.2 642.4) rotate(-180)" style="fill:#f4c382"/><rect y="144.8" width="29.4" height="58.8" transform="translate(29.4 348.4) rotate(-180)" style="fill:#f4c382"/><rect x="235.2" y="203.6" width="29.4" height="58.8" transform="translate(499.8 466) rotate(-180)" style="opacity:0.04"/><rect x="117.6" y="203.6" width="29.4" height="29.4" transform="translate(264.6 436.6) rotate(-180)" style="opacity:0.04"/><rect x="88.2" y="233" width="29.4" height="29.4" transform="translate(205.8 495.4) rotate(-180)" style="opacity:0.04"/><rect y="174.2" width="29.4" height="29.4" transform="translate(29.4 377.8) rotate(-180)" style="opacity:0.04"/><rect x="176.4" y="27.2" width="29.4" height="29.4" transform="translate(382.2 83.8) rotate(-180)" style="opacity:0.04"/><rect x="58.8" y="138.8" width="29.4" height="29.4" transform="translate(147 307) rotate(-180)" style="opacity:0.04"/><rect x="147" y="291.8" width="58.8" height="29.4" transform="translate(352.8 613) rotate(-180)" style="opacity:0.04"/><rect x="176.4" y="321.2" width="29.4" height="29.4" transform="translate(382.2 671.8) rotate(-180)" style="opacity:0.04"/><rect x="205.8" y="233" width="29.4" height="29.4" transform="translate(441 495.4) rotate(-180)" style="opacity:0.04"/><rect x="147" y="233" width="58.8" height="29.4" transform="translate(352.8 495.4) rotate(-180)" style="fill:#fff"/><rect x="118.8" y="138.4" width="29.4" height="29.4" transform="translate(267 306.2) rotate(-180)"/><rect x="265.8" y="138.4" width="29.4" height="29.4" transform="translate(561 306.2) rotate(-180)"/><rect x="28.4" width="176.4" height="29" transform="translate(233.2 29) rotate(-180)" style="fill:#f4c382"/></g></g></svg>