<svg xmlns="http://www.w3.org/2000/svg" viewBox="0 0 350.27 435.45"><title>face-hair</title><g id="Layer_2" data-name="Layer 2"><g id="Layer_1-2" data-name="Layer 1"><rect x="87.09" y="87.09" width="232.24" height="261.27" transform="translate(406.42 435.45) rotate(-180)" style="fill:#f4c382"/><rect x="87.09" y="319.33" width="174.18" height="116.12" transform="translate(348.36 754.79) rotate(-180)" style="fill:#f4c382"/><rect x="87.09" width="174.18" height="116.12" transform="translate(348.36 116.12) rotate(-180)" style="fill:#ffeb8a"/><rect x="58.06" y="261.27" width="29.03" height="87.09" transform="translate(145.15 609.64) rotate(-180)" style="fill:#ffeb8a"/><rect x="58.06" y="58.06" width="58.06" height="58.06" transform="translate(174.18 174.18) rotate(-180)" style="fill:#ffeb8a"/><rect x="29.03" y="116.12" width="87.09" height="87.09" transform="translate(145.15 319.33) rotate(-180)" style="fill:#ffeb8a"/><rect x="116.12" y="116.12" width="116.12" height="29.03" transform="translate(348.36 261.27) rotate(-180)" style="fill:#ffeb8a"/><rect x="261.27" y="29.03" width="58.06" height="58.06" transform="translate(580.61 116.12) rotate(-180)" style="fill:#ffeb8a"/><rect x="319.33" y="58.06" width="29.03" height="232.24" transform="translate(667.7 348.36) rotate(-180)" style="fill:#ffeb8a"/><rect x="290.3" y="87.09" width="29.03" height="29.03" transform="translate(609.64 203.21) rotate(-180)" style="fill:#ffeb8a"/><rect x="261.27" y="29.03" width="29.03" height="58.06" transform="translate(551.58 116.12) rotate(-180)" style="fill:#ffeb8a"/><rect x="29.03" y="203.21" width="29.03" height="116.12" transform="translate(87.09 522.55) rotate(-180)" style="fill:#ffeb8a"/><rect x="58.06" y="203.21" width="29.03" height="58.06" transform="translate(145.15 464.48) rotate(-180)" style="fill:#f4c382"/><rect x="87.09" y="203.21" width="29.03" height="58.06" transform="translate(203.21 464.48) rotate(-180)" style="fill:#ffeb8a"/><rect x="290.3" y="261.27" width="29.03" height="58.06" transform="translate(609.64 580.61) rotate(-180)" style="opacity:0.04"/><rect x="174.18" y="261.27" width="29.03" height="29.03" transform="translate(377.39 551.58) rotate(-180)" style="opacity:0.04"/><rect x="145.15" y="290.3" width="29.03" height="29.03" transform="translate(319.33 609.64) rotate(-180)" style="opacity:0.04"/><rect x="58.06" y="232.24" width="29.03" height="29.03" transform="translate(145.15 493.52) rotate(-180)" style="opacity:0.04"/><rect x="232.24" y="87.09" width="29.03" height="29.03" transform="translate(493.52 203.21) rotate(-180)" style="opacity:0.04"/><rect x="58.06" y="116.12" width="174.18" height="29.03" transform="translate(290.3 261.27) rotate(-180)" style="opacity:0.04"/><rect x="261.27" y="58.06" width="29.03" height="29.03" transform="translate(551.58 145.15) rotate(-180)" style="opacity:0.04"/><rect x="58.06" y="261.27" width="29.03" height="87.09" transform="translate(145.15 609.64) rotate(-180)" style="opacity:0.04"/><rect x="116.12" y="203.21" width="29.03" height="29.03" transform="translate(261.27 435.45) rotate(-180)" style="opacity:0.04"/><rect x="203.21" y="348.36" width="58.06" height="29.03" transform="translate(464.48 725.76) rotate(-180)" style="opacity:0.04"/><rect x="232.24" y="377.39" width="29.03" height="29.03" transform="translate(493.52 783.82) rotate(-180)" style="opacity:0.04"/><rect x="261.27" y="290.3" width="29.03" height="29.03" transform="translate(551.58 609.64) rotate(-180)" style="opacity:0.04"/><rect x="116.12" y="58.06" width="58.06" height="29.03" transform="translate(290.3 145.15) rotate(-180)" style="fill:#fff;opacity:0.4"/><rect x="87.09" width="29.03" height="29.03" transform="translate(203.21 29.03) rotate(-180)" style="fill:#fff;opacity:0.4"/><rect x="58.06" y="58.06" width="29.03" height="29.03" transform="translate(145.15 145.15) rotate(-180)" style="fill:#fff;opacity:0.4"/><rect x="29.03" y="116.12" width="29.03" height="29.03" transform="translate(87.09 261.27) rotate(-180)" style="fill:#fff;opacity:0.4"/><rect x="319.33" y="58.06" width="29.03" height="29.03" transform="translate(667.7 145.15) rotate(-180)" style="fill:#fff;opacity:0.4"/><rect x="290.3" y="29.03" width="29.03" height="29.03" transform="translate(609.64 87.09) rotate(-180)" style="fill:#fff;opacity:0.4"/><rect x="232.24" width="29.03" height="29.03" transform="translate(493.52 29.03) rotate(-180)" style="fill:#fff;opacity:0.4"/><rect x="145.15" y="29.03" width="29.03" height="29.03" transform="translate(319.33 87.09) rotate(-180)" style="fill:#fff;opacity:0.4"/><rect y="203.21" width="29.03" height="58.06" transform="translate(29.03 464.48) rotate(-180)" style="fill:#ffeb8a"/><rect y="203.21" width="29.03" height="58.06" transform="translate(29.03 464.48) rotate(-180)" style="fill:#fff;opacity:0.4"/><rect x="203.21" y="290.3" width="58.06" height="29.03" transform="translate(464.48 609.64) rotate(-180)" style="fill:#fff"/><rect x="173.87" y="201.4" width="29.4" height="29.4" transform="translate(377.13 432.2) rotate(-180)"/><rect x="320.87" y="201.4" width="29.4" height="29.4" transform="translate(671.13 432.2) rotate(-180)"/></g></g></svg>