<svg xmlns="http://www.w3.org/2000/svg" viewBox="0 0 247.76 510"><title>heino-large</title><g id="Layer_2" data-name="Layer 2"><g id="Layer_1-2" data-name="Layer 1"><rect x="35.39" y="53.09" width="141.58" height="159.27" style="fill:#f4c382"/><rect x="70.79" y="194.67" width="106.18" height="70.79" style="fill:#f4c382"/><rect x="70.79" width="106.18" height="70.79" style="fill:#ffeb8a"/><rect x="176.97" y="159.27" width="17.7" height="53.09" style="fill:#ffeb8a"/><rect x="159.27" y="35.39" width="35.39" height="35.39" style="fill:#ffeb8a"/><rect x="159.27" y="70.79" width="53.09" height="53.09" style="fill:#ffeb8a"/><rect x="88.48" y="106.18" width="53.09" height="53.09"/><rect x="53.09" y="106.18" width="35.39" height="17.7"/><rect x="141.58" y="106.18" width="17.7" height="17.7"/><rect x="88.48" y="70.79" width="70.79" height="17.7" style="fill:#ffeb8a"/><rect x="35.39" y="17.7" width="35.39" height="35.39" style="fill:#ffeb8a"/><rect x="17.7" y="35.39" width="17.7" height="141.58" style="fill:#ffeb8a"/><rect y="106.18" width="53.09" height="53.09"/><rect x="35.39" y="53.09" width="17.7" height="17.7" style="fill:#ffeb8a"/><rect x="53.09" y="17.7" width="17.7" height="35.39" style="fill:#ffeb8a"/><rect x="194.67" y="123.88" width="17.7" height="70.79" style="fill:#ffeb8a"/><rect x="176.97" y="123.88" width="17.7" height="35.39" style="fill:#f4c382"/><rect x="159.27" y="123.88" width="17.7" height="35.39" style="fill:#ffeb8a"/><rect x="35.39" y="159.27" width="17.7" height="35.39" style="opacity:0.04"/><rect x="106.18" y="159.27" width="17.7" height="17.7" style="opacity:0.04"/><rect x="123.88" y="176.97" width="17.7" height="17.7" style="opacity:0.04"/><rect x="176.97" y="141.58" width="17.7" height="17.7" style="opacity:0.04"/><rect x="70.79" y="53.09" width="17.7" height="17.7" style="opacity:0.04"/><rect x="88.48" y="70.79" width="106.18" height="17.7" style="opacity:0.04"/><rect x="53.09" y="35.39" width="17.7" height="17.7" style="opacity:0.04"/><rect x="176.97" y="159.27" width="17.7" height="53.09" style="opacity:0.04"/><rect x="141.58" y="123.88" width="17.7" height="17.7" style="opacity:0.04"/><rect x="70.79" y="212.36" width="35.39" height="17.7" style="opacity:0.04"/><rect x="70.79" y="230.06" width="17.7" height="17.7" style="opacity:0.04"/><rect x="53.09" y="176.97" width="17.7" height="17.7" style="opacity:0.04"/><rect x="123.88" y="35.39" width="35.39" height="17.7" style="fill:#fff;opacity:0.4"/><rect x="123.88" y="123.88" width="17.7" height="17.7" style="fill:#fff;opacity:0.4"/><rect x="159.27" width="17.7" height="17.7" style="fill:#fff;opacity:0.4"/><rect x="176.97" y="35.39" width="17.7" height="17.7" style="fill:#fff;opacity:0.4"/><rect x="194.67" y="70.79" width="17.7" height="17.7" style="fill:#fff;opacity:0.4"/><rect x="17.7" y="35.39" width="17.7" height="17.7" style="fill:#fff;opacity:0.4"/><rect x="35.39" y="17.7" width="17.7" height="17.7" style="fill:#fff;opacity:0.4"/><rect x="70.79" width="17.7" height="17.7" style="fill:#fff;opacity:0.4"/><rect x="123.88" y="17.7" width="17.7" height="17.7" style="fill:#fff;opacity:0.4"/><rect x="70.79" y="247.76" width="106.18" height="70.79"/><rect x="35.39" y="265.45" width="35.39" height="88.48" style="fill:#c1272d"/><rect x="176.97" y="265.45" width="35.39" height="88.48" style="fill:#c1272d"/><rect x="88.48" y="318.55" width="70.79" height="35.39"/><rect x="70.79" y="318.55" width="17.7" height="35.39" style="fill:#c1272d"/><rect x="159.27" y="318.55" width="17.7" height="35.39" style="fill:#c1272d"/><rect x="212.36" y="123.88" width="17.7" height="35.39" style="fill:#ffeb8a"/><rect x="212.36" y="123.88" width="17.7" height="35.39" style="fill:#fff;opacity:0.4"/><rect x="17.7" y="283.15" width="17.7" height="70.79" style="fill:#c1272d"/><rect x="212.36" y="283.15" width="17.7" height="70.79" style="fill:#c1272d"/><rect x="70.79" y="176.97" width="35.39" height="17.7" style="fill:#fff"/><rect x="212.36" y="300.85" width="35.39" height="209.15" style="fill:#c1272d"/><rect x="53.09" y="353.94" width="141.58" height="156.06" style="fill:#c1272d"/><rect x="106.18" y="353.94" width="35.39" height="156.06"/></g></g></svg>