<svg id="Layer_1" data-name="Layer 1" xmlns="http://www.w3.org/2000/svg" viewBox="0 0 800 800"><title>logo</title><rect width="800" height="800" style="fill:#fbb03b"/><polygon points="800 0 0 800 0 0 800 0 800 0" style="fill:#f7931e"/><rect x="268.2" y="194.2" width="235.2" height="264.6" style="fill:#f4c382"/><rect x="327" y="429.4" width="176.4" height="117.6" style="fill:#f4c382"/><rect x="327" y="106" width="176.4" height="117.6" style="fill:#ffeb8a"/><rect x="503.4" y="370.6" width="29.4" height="88.2" style="fill:#ffeb8a"/><rect x="474" y="164.8" width="58.8" height="58.8" style="fill:#ffeb8a"/><rect x="474" y="223.6" width="88.2" height="88.2" style="fill:#ffeb8a"/><rect x="356.4" y="282.4" width="88.2" height="88.2"/><rect x="297.6" y="282.4" width="58.8" height="29.4"/><rect x="444.6" y="282.4" width="29.4" height="29.4"/><rect x="356.4" y="223.6" width="117.6" height="29.4" style="fill:#ffeb8a"/><rect x="268.2" y="135.4" width="58.8" height="58.8" style="fill:#ffeb8a"/><rect x="238.8" y="164.8" width="29.4" height="235.2" style="fill:#ffeb8a"/><rect x="209.4" y="282.4" width="88.2" height="88.2"/><rect x="268.2" y="194.2" width="29.4" height="29.4" style="fill:#ffeb8a"/><rect x="297.6" y="135.4" width="29.4" height="58.8" style="fill:#ffeb8a"/><rect x="532.8" y="311.8" width="29.4" height="117.6" style="fill:#ffeb8a"/><rect x="503.4" y="311.8" width="29.4" height="58.8" style="fill:#f4c382"/><rect x="474" y="311.8" width="29.4" height="58.8" style="fill:#ffeb8a"/><rect x="268.2" y="370.6" width="29.4" height="58.8" style="opacity:0.04"/><rect x="385.8" y="370.6" width="29.4" height="29.4" style="opacity:0.04"/><rect x="415.2" y="400" width="29.4" height="29.4" style="opacity:0.04"/><rect x="503.4" y="341.2" width="29.4" height="29.4" style="opacity:0.04"/><rect x="327" y="194.2" width="29.4" height="29.4" style="opacity:0.04"/><rect x="356.4" y="223.6" width="176.4" height="29.4" style="opacity:0.04"/><rect x="297.6" y="164.8" width="29.4" height="29.4" style="opacity:0.04"/><rect x="503.4" y="370.6" width="29.4" height="88.2" style="opacity:0.04"/><rect x="444.6" y="311.8" width="29.4" height="29.4" style="opacity:0.04"/><rect x="327" y="458.8" width="58.8" height="29.4" style="opacity:0.04"/><rect x="327" y="488.2" width="29.4" height="29.4" style="opacity:0.04"/><rect x="297.6" y="400" width="29.4" height="29.4" style="opacity:0.04"/><rect x="415.2" y="164.8" width="58.8" height="29.4" style="fill:#fff;opacity:0.4"/><rect x="415.2" y="311.8" width="29.4" height="29.4" style="fill:#fff;opacity:0.4"/><rect x="474" y="106" width="29.4" height="29.4" style="fill:#fff;opacity:0.4"/><rect x="503.4" y="164.8" width="29.4" height="29.4" style="fill:#fff;opacity:0.4"/><rect x="532.8" y="223.6" width="29.4" height="29.4" style="fill:#fff;opacity:0.4"/><rect x="238.8" y="164.8" width="29.4" height="29.4" style="fill:#fff;opacity:0.4"/><rect x="268.2" y="135.4" width="29.4" height="29.4" style="fill:#fff;opacity:0.4"/><rect x="327" y="106" width="29.4" height="29.4" style="fill:#fff;opacity:0.4"/><rect x="415.2" y="135.4" width="29.4" height="29.4" style="fill:#fff;opacity:0.4"/><rect x="327" y="517.6" width="176.4" height="117.6"/><rect x="268.2" y="547" width="58.8" height="147" style="fill:#c1272d"/><rect x="503.4" y="547" width="58.8" height="147" style="fill:#c1272d"/><rect x="356.4" y="635.2" width="117.6" height="58.8"/><rect x="327" y="635.2" width="29.4" height="58.8" style="fill:#c1272d"/><rect x="474" y="635.2" width="29.4" height="58.8" style="fill:#c1272d"/><rect x="562.2" y="311.8" width="29.4" height="58.8" style="fill:#ffeb8a"/><rect x="562.2" y="311.8" width="29.4" height="58.8" style="fill:#fff;opacity:0.4"/><rect x="238.8" y="576.4" width="29.4" height="117.6" style="fill:#c1272d"/><rect x="562.2" y="576.4" width="29.4" height="117.6" style="fill:#c1272d"/><rect x="356.4" y="514.33" width="117.6" height="32.67" style="fill:#f4c382"/><rect x="385.8" y="547" width="58.8" height="32.67" style="fill:#f4c382"/><rect x="323.73" y="400" width="58.8" height="29.4" style="fill:#fff"/></svg>